<svg width="48" height="48" viewBox="0 0 48 48" fill="none" xmlns="http://www.w3.org/2000/svg">
<path d="M0 12C0 5.37258 5.37258 0 12 0H36C42.6274 0 48 5.37258 48 12V36C48 42.6274 42.6274 48 36 48H12C5.37258 48 0 42.6274 0 36V12Z" fill="white"/>
<g clip-path="url(#clip0_888_2625)">
<path d="M38.475 31.573C38.0299 31.2578 38.9385 31.8883 38.475 31.573C38.883 31.8326 39.0313 32.3704 38.8458 32.8157C38.6789 33.205 38.2895 33.446 37.8629 33.4276C37.4364 33.409 37.0655 33.1123 36.9357 32.7043C36.8059 32.2963 36.9543 31.8326 37.3066 31.5916C37.659 31.3505 38.1225 31.3319 38.475 31.573ZM25.5306 41.0124C25.7532 41.0124 25.9943 41.0124 26.2168 40.9939C26.6804 40.9753 27.144 40.9382 27.5891 40.8826C26.8288 40.9753 27.96 40.8455 27.5891 40.8826C28.0528 40.8269 28.4236 41.2535 28.3309 41.717C28.2753 41.9211 28.1269 42.088 27.9415 42.1807C27.8117 42.2364 27.6818 42.2364 27.552 42.2548C27.4037 42.2734 27.2368 42.2919 27.0884 42.2919C25.8644 42.3848 24.6404 42.3662 23.4165 42.2364C22.3038 42.1066 21.2282 41.9025 20.1526 41.5687C19.1156 41.2541 18.1099 40.8444 17.1483 40.3448C16.1655 39.844 15.2568 39.2507 14.3852 38.5831C13.3838 37.8412 12.4751 36.9881 11.6591 36.0423C10.8431 35.1151 10.12 34.0952 9.50793 33.0382C8.87732 31.944 8.35808 30.7942 7.96866 29.5887C7.56067 28.3648 7.30105 27.1037 7.15268 25.8242C7.00444 24.5261 7.00444 23.2093 7.13412 21.9112C7.26393 20.6316 7.52354 19.352 7.93153 18.1281C8.32096 16.9227 8.82176 15.7728 9.45224 14.6601C10.0643 13.566 10.806 12.5461 11.622 11.6003C12.4418 10.6693 13.3484 9.81853 14.3295 9.05953C15.331 8.29924 16.4066 7.63163 17.5193 7.09384C18.669 6.53748 19.8744 6.11093 21.117 5.79575C22.3781 5.48045 23.6761 5.31364 24.9742 5.25795C26.2784 5.22078 27.5831 5.31397 28.8687 5.53613C30.1113 5.75862 31.3351 6.11105 32.5219 6.5746C33.6904 7.03828 34.8031 7.63163 35.8415 8.3178C36.8801 9.00397 37.8444 9.80151 38.7346 10.6916C39.1054 11.0625 39.4393 11.4333 39.6804 11.9154C39.8843 12.3234 39.9957 12.7871 40.0327 13.2322C40.0884 14.1594 39.7731 15.1052 39.1426 15.7914C38.4194 16.6074 37.3251 17.0525 36.2495 16.9782C35.7303 16.9411 35.2111 16.7927 34.7474 16.5331C34.5089 16.4045 34.2903 16.2422 34.0983 16.051C33.8758 15.847 33.6718 15.6059 33.4493 15.402C32.5405 14.5489 31.502 13.8628 30.3709 13.3433C29.2025 12.8242 27.96 12.4904 26.699 12.3791C25.4009 12.2679 24.0841 12.3606 22.823 12.6759C21.5991 12.9912 20.4308 13.5104 19.3552 14.1966C18.3167 14.8827 17.3894 15.7357 16.6291 16.7001C15.8502 17.683 15.2382 18.7957 14.8118 19.9825C14.3851 21.1879 14.1626 22.4676 14.1626 23.7471C14.1626 25.0452 14.3667 26.3248 14.7932 27.5488C15.2012 28.7356 15.8131 29.8298 16.5734 30.8127C17.3337 31.7956 18.261 32.6486 19.2995 33.3348C20.3597 34.0411 21.5325 34.5616 22.7675 34.874C24.0284 35.2079 25.3452 35.3006 26.6433 35.1893C27.9044 35.078 29.1469 34.7627 30.3152 34.2436C30.445 34.1879 30.5563 34.1137 30.6861 34.0952C30.7973 34.0766 30.9087 34.0766 31.0199 34.1137C31.2424 34.1879 31.4092 34.3548 31.465 34.5773C31.5206 34.7814 31.4835 35.0224 31.3351 35.1893C31.261 35.282 31.1497 35.3376 31.0385 35.3933C30.8901 35.449 30.7603 35.5231 30.6118 35.5788C29.4251 36.0794 28.1826 36.3947 26.9029 36.506C25.6048 36.6358 24.2882 36.5615 23.0271 36.3019C23.194 36.4874 23.3424 36.6915 23.4906 36.8954C23.6392 37.1012 23.7815 37.3115 23.9173 37.5259C23.9358 37.563 23.9914 37.6373 23.9914 37.6373H24.047C24.1213 37.6373 24.1768 37.6557 24.2511 37.6557C24.3809 37.6743 24.5107 37.6743 24.6404 37.6928C25.1783 37.73 25.7161 37.73 26.2539 37.7114C27.3109 37.6557 28.3679 37.5075 29.388 37.2107C30.3709 36.9325 31.3351 36.543 32.2439 36.0609C33.134 35.5788 33.9685 35.0224 34.7288 34.3548L35.2852 33.854C35.4521 33.7058 35.5819 33.5203 35.786 33.4276C36.1383 33.2421 36.5648 33.2978 36.8616 33.5388C37.1768 33.7799 37.3066 34.1879 37.2139 34.5773C37.1582 34.7814 37.0656 34.9482 36.9171 35.078C36.7318 35.2449 36.5648 35.4304 36.3793 35.5973C35.6376 36.2649 34.8402 36.8769 33.9871 37.3961C33.1154 37.9339 32.2069 38.379 31.2424 38.7313C30.2595 39.1023 29.2582 39.3619 28.2196 39.5288C27.1625 39.6956 26.0869 39.7699 25.0114 39.7328C25.1042 39.9738 25.1783 40.2149 25.2524 40.4559C25.2895 40.5673 25.3081 40.6786 25.3452 40.7898C25.3452 40.8269 25.3822 40.9196 25.3822 40.9196L25.5306 41.0124ZM35.8787 37.6001C33.9685 39.0095 36.1754 37.3775 35.8787 37.6001C35.9715 37.5259 36.1012 37.4703 36.2495 37.4332C36.4906 37.4146 36.7503 37.5445 36.8801 37.7671C37.0099 37.9897 37.0099 38.2863 36.8616 38.4902C36.7688 38.6201 36.639 38.6943 36.5277 38.787C36.3979 38.8798 36.2495 38.9725 36.1197 39.0652C35.8549 39.2551 35.5827 39.4345 35.3037 39.603C34.191 40.2891 33.0042 40.8641 31.7802 41.2906C31.1673 41.5126 30.5419 41.6983 29.9072 41.8468C29.629 41.9025 29.3509 41.8654 29.1655 41.6243C28.9986 41.4204 28.9614 41.1422 29.0912 40.9012C29.1469 40.7898 29.221 40.6971 29.3323 40.6414C29.4621 40.5673 29.6105 40.5487 29.7403 40.5116C30.0556 40.4375 30.3709 40.3448 30.6861 40.252C31.3167 40.0481 31.9287 39.8255 32.5221 39.5658C33.7089 39.0466 34.8402 38.379 35.8787 37.6M38.1041 35.5972C37.863 35.8568 38.3637 35.319 38.1041 35.5972C38.4007 35.2819 38.9385 35.3376 39.1611 35.7084C39.2538 35.8567 39.2724 36.0607 39.2353 36.2277C39.1797 36.4502 39.0128 36.5985 38.8644 36.7469C38.6945 36.9353 38.515 37.1148 38.3266 37.2847C38.1597 37.4331 37.9557 37.5258 37.7145 37.4888C37.3253 37.4331 37.0655 37.0251 37.1768 36.6357C37.251 36.4316 37.4178 36.3018 37.5662 36.1536C37.7518 35.9679 37.9372 35.7826 38.1041 35.5972ZM33.8944 31.7027C33.2452 32.3889 34.154 31.4431 33.8944 31.7027C34.1169 31.4802 34.4693 31.4431 34.7474 31.5914C35.0256 31.7584 35.1368 32.1107 35.0256 32.4074C34.9514 32.5558 34.8402 32.667 34.7288 32.7783C34.599 32.9081 34.4878 33.038 34.358 33.1493C34.1355 33.3532 33.9128 33.5573 33.6904 33.7426C33.4493 33.9281 33.1897 34.1136 32.9301 34.299C32.6519 34.503 32.318 34.5216 32.0584 34.299C31.8359 34.1136 31.7617 33.7983 31.873 33.5387C31.9274 33.4108 32.0176 33.3013 32.1327 33.2234C32.2625 33.1306 32.4108 33.0195 32.5406 32.9266C33.0227 32.5558 33.4679 32.1478 33.8944 31.7027ZM25.6048 19.426C25.8273 19.426 26.0499 19.4446 26.291 19.4446C27.1625 19.5928 27.9971 20.001 28.6461 20.6129C29.2767 21.2249 29.7403 22.0409 29.9072 22.9126C30.0927 23.8212 29.9813 24.767 29.6105 25.6016C29.2452 26.4097 28.644 27.0885 27.8858 27.5487C27.1033 28.0312 26.1874 28.252 25.271 28.1792C24.3809 28.1236 23.5092 27.7712 22.823 27.1964C22.1351 26.6374 21.6364 25.8796 21.3951 25.0266C21.1355 24.1364 21.1727 23.1721 21.488 22.3191C21.7846 21.4845 22.3409 20.7612 23.0642 20.242C23.806 19.7042 24.6962 19.426 25.6048 19.426Z" fill="#FF6C36"/>
</g>
<defs>
<clipPath id="clip0_888_2625">
<rect width="33" height="37.125" fill="white" transform="translate(7.03906 5.25)"/>
</clipPath>
</defs>
</svg>
